<svg version="1.1" xmlns="http://www.w3.org/2000/svg" xmlns:xlink="http://www.w3.org/1999/xlink" viewBox="0 0 172 172"><g fill="none" fill-rule="nonzero" stroke="none" stroke-width="1" stroke-linecap="butt" stroke-linejoin="miter" stroke-miterlimit="10" stroke-dasharray="" stroke-dashoffset="0" font-family="none" font-weight="none" font-size="none" text-anchor="none" style="mix-blend-mode: normal"><path d="M0,172v-172h172v172z" fill="#1266f1"></path><g fill="#ffffff"><path d="M11.46667,11.46667c-2.06765,-0.02924 -3.99087,1.05709 -5.03322,2.843c-1.04236,1.78592 -1.04236,3.99474 0,5.78066c1.04236,1.78592 2.96558,2.87225 5.03322,2.843h10.7724c1.29517,0 2.37592,0.81106 2.74349,2.06042l24.43385,83.06614c2.14446,7.29116 8.88821,12.34011 16.49453,12.34011h62.73073c7.86218,0 14.77843,-5.39885 16.68489,-13.02317v-0.0112l15.0388,-60.11041c0.42737,-1.71302 0.04175,-3.52742 -1.04536,-4.91857c-1.08711,-1.39115 -2.75448,-2.20392 -4.52001,-2.20331h-113.4125l-5.3974,-18.37578c-0.00373,0 -0.00747,0 -0.0112,0c-1.78818,-6.07784 -7.40968,-10.29089 -13.73984,-10.29089zM97.46667,51.6c3.1648,0 5.73333,2.5628 5.73333,5.73333v17.2h17.2c3.1648,0 5.73333,2.5628 5.73333,5.73333c0,3.17053 -2.56853,5.73333 -5.73333,5.73333h-17.2v17.2c0,3.17053 -2.56853,5.73333 -5.73333,5.73333c-3.1648,0 -5.73333,-2.5628 -5.73333,-5.73333v-17.2h-17.2c-3.1648,0 -5.73333,-2.5628 -5.73333,-5.73333c0,-3.17053 2.56853,-5.73333 5.73333,-5.73333h17.2v-17.2c0,-3.17053 2.56853,-5.73333 5.73333,-5.73333zM68.8,131.86667c-6.33287,0 -11.46667,5.1338 -11.46667,11.46667c0,6.33287 5.1338,11.46667 11.46667,11.46667c6.33287,0 11.46667,-5.1338 11.46667,-11.46667c0,-6.33287 -5.1338,-11.46667 -11.46667,-11.46667zM126.13333,131.86667c-6.33287,0 -11.46667,5.1338 -11.46667,11.46667c0,6.33287 5.1338,11.46667 11.46667,11.46667c6.33287,0 11.46667,-5.1338 11.46667,-11.46667c0,-6.33287 -5.1338,-11.46667 -11.46667,-11.46667z"></path></g></g></svg>